<svg id="Calque_1" data-name="Calque 1" xmlns="http://www.w3.org/2000/svg" viewBox="0 0 661.54 61.42"><defs><style>.cls-1{fill:#001622;}.cls-2{fill:#f38531;}</style></defs><title>SONATRACH SIGNATURE FRANCAISE</title><polygon class="cls-1" points="0 8.42 0 38.17 19.68 38.17 19.68 36.17 2.21 36.17 2.21 8.42 0 8.42"/><path class="cls-1" d="M443.5,405.84a5.39,5.39,0,0,0,1.91-1.49,2.94,2.94,0,0,0,.47-2h-1.15v-3.61h2.81v3.15a5.35,5.35,0,0,1-.81,3.14A5.59,5.59,0,0,1,444,406.9Z" transform="translate(-417.02 -390.32)"/><path class="cls-1" d="M457.36,398.74v29.75h21.38v-2H459.57v-12h17v-2h-17V400.74h18.95v-2Zm12.45-8.42L466.07,396h1.79l4.54-4.38Z" transform="translate(-417.02 -390.32)"/><path class="cls-1" d="M487.49,406.82h2.08v4a10.19,10.19,0,0,1,3-3.23,8.3,8.3,0,0,1,4.85-1.31,9.81,9.81,0,0,1,3.65.65,7.76,7.76,0,0,1,2.74,1.85,7.87,7.87,0,0,1,1.7,2.83,10.6,10.6,0,0,1,.58,3.59v13.26H504V415.61a7.81,7.81,0,0,0-1.79-5.37,6.44,6.44,0,0,0-5.1-2,7.37,7.37,0,0,0-5.36,2.17,7.16,7.16,0,0,0-1.59,2.44,8.33,8.33,0,0,0-.58,3.12v12.54h-2.08Z" transform="translate(-417.02 -390.32)"/><path class="cls-1" d="M532.21,416.63a12.78,12.78,0,0,0-.66-3.16,8.86,8.86,0,0,0-1.49-2.68,7.16,7.16,0,0,0-2.37-1.87,7.77,7.77,0,0,0-6.31-.06,7.51,7.51,0,0,0-2.45,1.76,9.63,9.63,0,0,0-1.72,2.68,9.75,9.75,0,0,0-.81,3.33ZM524.84,429a10.62,10.62,0,0,1-4.07-.8,10.42,10.42,0,0,1-3.41-2.3,10.86,10.86,0,0,1-2.32-3.57,12.08,12.08,0,0,1-.85-4.63v-.09a12.35,12.35,0,0,1,.78-4.4,11.49,11.49,0,0,1,2.17-3.59,10.31,10.31,0,0,1,3.25-2.42,9.3,9.3,0,0,1,4.08-.89,9.51,9.51,0,0,1,4.13.87,9.29,9.29,0,0,1,3.12,2.4,10.92,10.92,0,0,1,2,3.59,13.81,13.81,0,0,1,.7,4.49v.44c0,.1,0,.24,0,.41h-18a9.24,9.24,0,0,0,2.81,6.26,8,8,0,0,0,2.62,1.67,8.47,8.47,0,0,0,3.09.57,8.86,8.86,0,0,0,4.33-1,12.79,12.79,0,0,0,3.13-2.42l1.44,1.27a14.86,14.86,0,0,1-3.76,2.95,10.66,10.66,0,0,1-5.22,1.17" transform="translate(-417.02 -390.32)"/><path class="cls-1" d="M542.62,406.82h2.08V413a12.59,12.59,0,0,1,1.62-2.68,10.7,10.7,0,0,1,2.21-2.1,9.43,9.43,0,0,1,5.78-1.72v2.29h-.21a9.39,9.39,0,0,0-3.57.7,8.52,8.52,0,0,0-3,2.09,10.17,10.17,0,0,0-2.06,3.4,13,13,0,0,0-.77,4.65v8.88h-2.08Z" transform="translate(-417.02 -390.32)"/><path class="cls-1" d="M571,424.88a9.72,9.72,0,0,0,3.32-.59,9.4,9.4,0,0,0,2.88-1.68,8.44,8.44,0,0,0,2-2.6,7.22,7.22,0,0,0,.77-3.38v-.08a7.36,7.36,0,0,0-.77-3.4,8.25,8.25,0,0,0-2-2.61,8.78,8.78,0,0,0-2.88-1.66,10,10,0,0,0-3.32-.58,9.25,9.25,0,0,0-3.24.58,8.1,8.1,0,0,0-2.68,1.63,7.62,7.62,0,0,0-1.81,2.57,8.5,8.5,0,0,0-.66,3.43v.08a8.07,8.07,0,0,0,.68,3.36,7.88,7.88,0,0,0,1.83,2.61,8.65,8.65,0,0,0,5.88,2.32m.3,10.5a16.19,16.19,0,0,1-10-3.36l1.23-1.7a14,14,0,0,0,8.78,3.06,10.41,10.41,0,0,0,3.43-.53,7.39,7.39,0,0,0,2.69-1.58,7.25,7.25,0,0,0,1.76-2.62,9.47,9.47,0,0,0,.64-3.64v-3.15a15.45,15.45,0,0,1-1.61,1.92,12.05,12.05,0,0,1-2,1.59,9.74,9.74,0,0,1-2.47,1.11,10.31,10.31,0,0,1-3,.4,10.58,10.58,0,0,1-3.83-.72,10.47,10.47,0,0,1-3.33-2.07,10.2,10.2,0,0,1-2.36-3.2,9.6,9.6,0,0,1-.9-4.21v-.09a9.87,9.87,0,0,1,.9-4.25,10.08,10.08,0,0,1,2.36-3.25,10.73,10.73,0,0,1,12.64-1.32,10.48,10.48,0,0,1,2,1.55,15.29,15.29,0,0,1,1.57,1.83v-4.33h2.09v18.32a11.37,11.37,0,0,1-.73,4.2,9.11,9.11,0,0,1-2,3.15,9.49,9.49,0,0,1-3.43,2.15,12.94,12.94,0,0,1-4.45.74" transform="translate(-417.02 -390.32)"/><path class="cls-1" d="M592.22,406.82h2.09v21.67h-2.09Zm-.25-8.5h2.59v2.84H592Z" transform="translate(-417.02 -390.32)"/><path class="cls-1" d="M621.17,416.63a12.78,12.78,0,0,0-.66-3.16,8.65,8.65,0,0,0-1.49-2.68,7.16,7.16,0,0,0-2.37-1.87,7.77,7.77,0,0,0-6.31-.06,7.62,7.62,0,0,0-2.45,1.76,9.63,9.63,0,0,0-1.72,2.68,10,10,0,0,0-.81,3.33ZM613.8,429a10.62,10.62,0,0,1-4.07-.8,10.42,10.42,0,0,1-3.41-2.3,10.86,10.86,0,0,1-2.32-3.57,12.08,12.08,0,0,1-.85-4.63v-.09a12.35,12.35,0,0,1,.78-4.4,11.49,11.49,0,0,1,2.17-3.59,10.31,10.31,0,0,1,3.25-2.42,9.31,9.31,0,0,1,4.09-.89,9.47,9.47,0,0,1,4.12.87,9.2,9.2,0,0,1,3.12,2.4,10.92,10.92,0,0,1,2,3.59,13.81,13.81,0,0,1,.7,4.49v.44a2.41,2.41,0,0,1,0,.41h-18a9.36,9.36,0,0,0,2.81,6.26,8,8,0,0,0,2.62,1.67,8.47,8.47,0,0,0,3.09.57,8.86,8.86,0,0,0,4.33-1,12.79,12.79,0,0,0,3.13-2.42l1.45,1.27a15.09,15.09,0,0,1-3.77,2.95A10.66,10.66,0,0,1,613.8,429" transform="translate(-417.02 -390.32)"/><path class="cls-1" d="M655.79,427a8.44,8.44,0,0,0,3.3-.68,8.81,8.81,0,0,0,2.83-1.92,9.23,9.23,0,0,0,2.73-6.71v-.09a9.57,9.57,0,0,0-.74-3.8,9,9,0,0,0-2-2.93,9.09,9.09,0,0,0-2.83-1.9,8.44,8.44,0,0,0-3.3-.68,8.88,8.88,0,0,0-3.35.64,8,8,0,0,0-2.7,1.83,8.4,8.4,0,0,0-1.81,2.91,10.83,10.83,0,0,0-.66,3.89v.09a10.4,10.4,0,0,0,.68,3.86,8.71,8.71,0,0,0,1.85,3,8.33,8.33,0,0,0,6,2.53m-.19,2a10.16,10.16,0,0,1-3.85-.76,10.46,10.46,0,0,1-3.38-2.21,11,11,0,0,1-2.4-3.55,11.75,11.75,0,0,1-.91-4.74v-.08a11.75,11.75,0,0,1,.91-4.74,11.1,11.1,0,0,1,2.4-3.57,10.61,10.61,0,0,1,3.38-2.26,10.23,10.23,0,0,1,6.82-.36,9.87,9.87,0,0,1,2.45,1.15,10.7,10.7,0,0,1,2,1.66,14.89,14.89,0,0,1,1.55,1.95v-14h2.09v31h-2.09v-4.84a19.28,19.28,0,0,1-1.59,2,9.94,9.94,0,0,1-2,1.7,10.24,10.24,0,0,1-2.42,1.17,9.18,9.18,0,0,1-2.95.44" transform="translate(-417.02 -390.32)"/><path class="cls-1" d="M684.88,429a9.73,9.73,0,0,1-3.65-.65,7.76,7.76,0,0,1-2.74-1.85,7.87,7.87,0,0,1-1.7-2.83,10.6,10.6,0,0,1-.58-3.59V406.82h2.08V419.7a7.81,7.81,0,0,0,1.79,5.37,6.44,6.44,0,0,0,5.1,2,7.64,7.64,0,0,0,3-.57,7.41,7.41,0,0,0,2.41-1.6,7.16,7.16,0,0,0,1.59-2.44,8.33,8.33,0,0,0,.57-3.12V406.82h2.09v21.67H692.7v-4a10,10,0,0,1-3,3.23,8.3,8.3,0,0,1-4.85,1.31" transform="translate(-417.02 -390.32)"/><path class="cls-1" d="M733.25,429a15.25,15.25,0,0,1-6.07-1.19,14.68,14.68,0,0,1-8-8.11,15.78,15.78,0,0,1-1.14-6v-.08a15.56,15.56,0,0,1,1.14-6,15.38,15.38,0,0,1,3.19-4.89,14.71,14.71,0,0,1,4.89-3.32,15.89,15.89,0,0,1,6.29-1.21,19.31,19.31,0,0,1,3.8.34,16.69,16.69,0,0,1,3.13.93A13.59,13.59,0,0,1,743,401a18,18,0,0,1,2.21,1.87l-4.16,4.8a16.12,16.12,0,0,0-3.55-2.46,9,9,0,0,0-4.06-.89A8.36,8.36,0,0,0,730,405a8.25,8.25,0,0,0-2.74,2,9.27,9.27,0,0,0-1.78,2.95,9.94,9.94,0,0,0-.64,3.59v.09a10.09,10.09,0,0,0,.64,3.61,9.44,9.44,0,0,0,1.76,3,8.25,8.25,0,0,0,6.23,2.76,9,9,0,0,0,4.31-.94,16.38,16.38,0,0,0,3.51-2.55l4.16,4.21a20.45,20.45,0,0,1-2.38,2.21,14.24,14.24,0,0,1-2.7,1.68,13.67,13.67,0,0,1-3.2,1.06,19.52,19.52,0,0,1-3.92.36" transform="translate(-417.02 -390.32)"/><path class="cls-1" d="M752.12,397.47h6.47V409a13.24,13.24,0,0,1,1.21-1.39,8,8,0,0,1,1.47-1.18,7.23,7.23,0,0,1,1.78-.81,7.53,7.53,0,0,1,2.21-.3,7.29,7.29,0,0,1,5.72,2.25,9,9,0,0,1,2,6.2v14.75h-6.46V415.82a5.07,5.07,0,0,0-1-3.46,3.62,3.62,0,0,0-2.89-1.17,3.83,3.83,0,0,0-3,1.17,4.93,4.93,0,0,0-1.08,3.46v12.67h-6.47Z" transform="translate(-417.02 -390.32)"/><path class="cls-1" d="M789.15,424.46a5.68,5.68,0,0,0,3.67-1.11,3.53,3.53,0,0,0,1.38-2.89v-1.15a9.64,9.64,0,0,0-1.88-.61,10.06,10.06,0,0,0-2.24-.24,5.73,5.73,0,0,0-3.27.81,2.66,2.66,0,0,0-1.19,2.34v.08a2.37,2.37,0,0,0,1,2,4.13,4.13,0,0,0,2.55.73m-2,4.46a10.07,10.07,0,0,1-3-.45,6.84,6.84,0,0,1-2.48-1.34A6.35,6.35,0,0,1,780,425a7,7,0,0,1-.62-3v-.09a7.22,7.22,0,0,1,.68-3.23,6.25,6.25,0,0,1,1.89-2.25,8.47,8.47,0,0,1,2.89-1.34,14.38,14.38,0,0,1,3.72-.44,15.94,15.94,0,0,1,3,.25,19.21,19.21,0,0,1,2.53.68v-.38a3.89,3.89,0,0,0-1.23-3.11,5.51,5.51,0,0,0-3.66-1.06,15.35,15.35,0,0,0-3.29.32,22.87,22.87,0,0,0-3,.91l-1.61-4.93a26,26,0,0,1,3.91-1.31,20.58,20.58,0,0,1,4.93-.51,14,14,0,0,1,4.57.66,7.88,7.88,0,0,1,3.12,1.89,7.69,7.69,0,0,1,1.87,3.12,13.4,13.4,0,0,1,.59,4.14v13.22h-6.24V426a9,9,0,0,1-2.85,2.1,9.3,9.3,0,0,1-4,.79" transform="translate(-417.02 -390.32)"/><path class="cls-1" d="M808,405.71h6.46V409a13.24,13.24,0,0,1,1.21-1.39,8.45,8.45,0,0,1,1.47-1.18,7.4,7.4,0,0,1,1.78-.81,7.57,7.57,0,0,1,2.21-.3,7.28,7.28,0,0,1,5.72,2.25,8.94,8.94,0,0,1,2,6.2v14.75h-6.46V415.82a5.12,5.12,0,0,0-1-3.46,3.64,3.64,0,0,0-2.89-1.17,3.85,3.85,0,0,0-3,1.17,4.93,4.93,0,0,0-1.08,3.46v12.67H808Z" transform="translate(-417.02 -390.32)"/><path class="cls-1" d="M847.59,421.27a6.33,6.33,0,0,0,2.21-.38,5.32,5.32,0,0,0,1.77-1.09,5.24,5.24,0,0,0,1.59-3.8v-.09a5.24,5.24,0,0,0-1.59-3.8A5.32,5.32,0,0,0,849.8,411a6.33,6.33,0,0,0-2.21-.38,6.22,6.22,0,0,0-2.19.38,5.29,5.29,0,0,0-1.74,1.09,5,5,0,0,0-1.17,1.68,5.31,5.31,0,0,0-.42,2.12V416a4.93,4.93,0,0,0,1.57,3.82,5.58,5.58,0,0,0,4,1.45m-.76,14.11a22.81,22.81,0,0,1-5.36-.62,20.44,20.44,0,0,1-4.72-1.76l2.21-4.85a18.18,18.18,0,0,0,3.59,1.53,14,14,0,0,0,4.11.56,6.75,6.75,0,0,0,4.91-1.58,6.22,6.22,0,0,0,1.59-4.63v-1.1a11.72,11.72,0,0,1-3.15,2.72,8.51,8.51,0,0,1-4.29,1,10.48,10.48,0,0,1-3.82-.7,9.24,9.24,0,0,1-3.23-2.06,10.06,10.06,0,0,1-2.24-3.33,11.69,11.69,0,0,1-.82-4.53v-.09a11.25,11.25,0,0,1,.85-4.52,10,10,0,0,1,2.25-3.34,9.38,9.38,0,0,1,3.23-2.06,10.42,10.42,0,0,1,3.78-.7,8.66,8.66,0,0,1,4.34,1,12.41,12.41,0,0,1,3,2.43v-3h6.47v17.64q0,6.07-2.9,9a9.36,9.36,0,0,1-4,2.34,20.5,20.5,0,0,1-5.76.72" transform="translate(-417.02 -390.32)"/><path class="cls-1" d="M882.4,415.32a6.3,6.3,0,0,0-1.53-3.51,4.24,4.24,0,0,0-3.27-1.34,4.35,4.35,0,0,0-3.3,1.32,6.6,6.6,0,0,0-1.63,3.53ZM878.24,429a12.92,12.92,0,0,1-4.74-.85,10.94,10.94,0,0,1-3.79-2.42,11.18,11.18,0,0,1-2.48-3.72,12.23,12.23,0,0,1-.9-4.78v-.09a12.84,12.84,0,0,1,.83-4.59,11.92,11.92,0,0,1,2.32-3.78,10.78,10.78,0,0,1,8.12-3.48,11.1,11.1,0,0,1,4.93,1,10,10,0,0,1,3.46,2.74,11.42,11.42,0,0,1,2,3.95,16.35,16.35,0,0,1,.66,4.66c0,.25,0,.52,0,.8s0,.58-.06.9H872.75a5.42,5.42,0,0,0,1.94,3.33,5.78,5.78,0,0,0,3.63,1.13,7.34,7.34,0,0,0,2.89-.55,10,10,0,0,0,2.64-1.79l3.7,3.27a11.45,11.45,0,0,1-3.92,3.13,12.12,12.12,0,0,1-5.39,1.12" transform="translate(-417.02 -390.32)"/><path class="cls-1" d="M895.62,405.71h6.46V409a13.24,13.24,0,0,1,1.21-1.39,8.45,8.45,0,0,1,1.47-1.18,7.37,7.37,0,0,1,1.8-.81,7.78,7.78,0,0,1,2.24-.3,7.61,7.61,0,0,1,3.88.94,6.27,6.27,0,0,1,2.53,2.69,10.5,10.5,0,0,1,3.32-2.71,9.07,9.07,0,0,1,4.17-.92,7.44,7.44,0,0,1,5.65,2.12q2,2.13,2,6.25v14.83h-6.46V415.82a5.29,5.29,0,0,0-1-3.46,3.46,3.46,0,0,0-2.81-1.17,3.63,3.63,0,0,0-2.86,1.17,5,5,0,0,0-1,3.46v12.67h-6.47V415.82a5.29,5.29,0,0,0-1-3.46,3.46,3.46,0,0,0-2.81-1.17,3.65,3.65,0,0,0-2.87,1.17,5.07,5.07,0,0,0-1,3.46v12.67h-6.46Z" transform="translate(-417.02 -390.32)"/><path class="cls-1" d="M953.09,415.32a6.3,6.3,0,0,0-1.53-3.51,4.26,4.26,0,0,0-3.28-1.34,4.33,4.33,0,0,0-3.29,1.32,6.61,6.61,0,0,0-1.64,3.53ZM948.92,429a12.92,12.92,0,0,1-4.74-.85,10.8,10.8,0,0,1-3.78-2.42,11.36,11.36,0,0,1-2.49-3.72,12.41,12.41,0,0,1-.89-4.78v-.09a12.84,12.84,0,0,1,.83-4.59,11.57,11.57,0,0,1,2.32-3.78,10.74,10.74,0,0,1,8.11-3.48,11.07,11.07,0,0,1,4.93,1,10,10,0,0,1,3.47,2.74,11.42,11.42,0,0,1,2,3.95,16.35,16.35,0,0,1,.66,4.66c0,.25,0,.52,0,.8s0,.58-.07.9H943.44a5.46,5.46,0,0,0,1.93,3.33,5.81,5.81,0,0,0,3.64,1.13,7.37,7.37,0,0,0,2.89-.55,10,10,0,0,0,2.63-1.79l3.7,3.27a11.41,11.41,0,0,1-3.91,3.13,12.14,12.14,0,0,1-5.4,1.12" transform="translate(-417.02 -390.32)"/><path class="cls-1" d="M966.3,405.71h6.47V409a12.17,12.17,0,0,1,1.21-1.39,8.45,8.45,0,0,1,1.47-1.18,7.23,7.23,0,0,1,1.78-.81,7.53,7.53,0,0,1,2.21-.3,7.3,7.3,0,0,1,5.72,2.25,9,9,0,0,1,2,6.2v14.75h-6.46V415.82a5.07,5.07,0,0,0-1-3.46,3.62,3.62,0,0,0-2.89-1.17,3.83,3.83,0,0,0-2.95,1.17,4.93,4.93,0,0,0-1.08,3.46v12.67H966.3Z" transform="translate(-417.02 -390.32)"/><path class="cls-1" d="M1002.6,428.88a10.75,10.75,0,0,1-2.7-.32,4.8,4.8,0,0,1-2.08-1.13,5.5,5.5,0,0,1-1.36-2.1A9.37,9.37,0,0,1,996,422V411.24h-2.72v-5.53H996v-5.82h6.46v5.82h5.36v5.53h-5.36V421c0,1.47.7,2.21,2.09,2.21a6.26,6.26,0,0,0,3.18-.85v5.19a9.61,9.61,0,0,1-5.1,1.32" transform="translate(-417.02 -390.32)"/><rect class="cls-2" x="442.33" y="50.05" width="219.21" height="11.37"/></svg>